<?xml version="1.0" encoding="UTF-8" standalone="no"?>
<svg width="795px" height="684px" viewBox="0 0 795 684" version="1.1" xmlns="http://www.w3.org/2000/svg" xmlns:xlink="http://www.w3.org/1999/xlink">
    <!-- Generator: Sketch 43.2 (39069) - http://www.bohemiancoding.com/sketch -->
    <title>Artboard</title>
    <desc>Created with Sketch.</desc>
    <defs>
        <linearGradient x1="0%" y1="0%" x2="101.999998%" y2="100.999999%" id="linearGradient-1">
            <stop stop-color="#3023AE" offset="0%"></stop>
            <stop stop-color="#C96DD8" offset="100%"></stop>
        </linearGradient>
        <rect id="path-2" x="0" y="6" width="712" height="609" rx="8"></rect>
    </defs>
    <g id="fish" stroke="none" stroke-width="1" fill="none" fill-rule="evenodd">
        <g id="Artboard">
            <g id="Fish-Terminal" transform="translate(42.000000, 30.000000)">
                <g id="Rectangle-2">
                    <use fill="#000000" fill-rule="evenodd" xlink:href="#path-2"></use>
                    <rect stroke="url(#linearGradient-1)" stroke-width="10" x="-5" y="1" width="722" height="619" rx="8"></rect>
                </g>
                <g id="fish" transform="translate(275.000000, 115.000000)" fill-rule="nonzero" fill="#FFFFFF">
                    <path d="M236.803922,0 C235.954248,3.05889571 233.405229,2.0392638 231.535948,2.0392638 C223.294118,2.12423313 214.96732,2.12423313 206.72549,2.0392638 C204.771242,2.0392638 202.222222,2.97392638 201.372549,0 L236.803922,0 Z" id="XMLID_435_"></path>
                    <path d="M98.9869281,14.6996933 L75.3660131,14.6996933 C73.5816993,14.6996933 71.2875817,14.9546012 71.1176471,12.2355828 C71.0326797,10.196319 72.9019608,10.1113497 74.4313725,9.51656442 C80.379085,7.30736196 86.751634,7.39233129 92.5294118,8.32699387 C103.065359,9.94141104 113.346405,8.07208589 123.797386,8.24202454 C125.666667,8.24202454 127.79085,7.56226994 128.385621,10.1113497 C128.980392,12.9153374 126.686275,12.6604294 124.901961,13.2552147 C115.72549,16.2291411 106.294118,13.595092 98.9869281,14.6996933 Z" id="XMLID_434_"></path>
                    <path d="M232.130719,28.8895706 C235.784314,28.8895706 239.522876,28.8046012 243.176471,28.9745399 C244.79085,29.0595092 247.509804,28.209816 247.254902,31.1837423 C247.084967,33.3079755 244.960784,33.9877301 243.006536,33.9027607 C238.333333,33.8177914 233.660131,33.3929448 228.901961,33.4779141 C225.248366,33.5628834 221.594771,33.9027607 217.941176,33.9027607 C216.326797,33.9027607 214.627451,33.5628834 214.542484,31.4386503 C214.457516,29.2294479 216.156863,28.9745399 217.856209,28.9745399 C222.614379,28.8895706 227.372549,28.8895706 232.130719,28.8895706 L232.130719,28.8895706 Z" id="XMLID_433_"></path>
                    <path d="M165.941176,22.5168712 L130,22.5168712 C130,21.7521472 130,20.902454 130.084967,20.1377301 L177.921569,20.1377301 C174.862745,23.5365031 171.718954,22.0920245 169.254902,22.7717791 C168.150327,22.6868098 167.045752,22.6018405 165.941176,22.5168712 Z" id="XMLID_432_"></path>
                    <path d="M81.3137255,100.943558 L47.1568627,100.943558 L47.1568627,99.4990798 L81.2287582,99.4990798 C81.2287582,99.9239264 81.2287582,100.433742 81.3137255,100.943558 Z" id="XMLID_431_"></path>
                    <path d="M57.4379085,21.8371166 L22.9411765,21.8371166 L22.9411765,20.2226994 L57.4379085,20.2226994 L57.4379085,21.8371166 Z" id="XMLID_430_"></path>
                    <path d="M357.797386,239.18865 C362.300654,243.522086 358.647059,248.365337 362.215686,251.76411 C366.20915,248.705215 362.130719,243.437117 365.954248,239.698466 C368.163399,244.626687 368.248366,249.045092 365.954248,253.293558 C364.849673,255.417791 361.79085,255.58773 360.176471,254.31319 C355.078431,250.489571 357.882353,245.221472 357.797386,239.18865 Z" id="XMLID_429_"></path>
                    <path d="M286.849673,258.986503 C290.333333,263.574847 286.849673,268.24816 290.588235,271.731902 C294.836601,268.673006 291.098039,263.489877 294.24183,259.496319 C297.215686,264.42454 297.130719,269.097853 294.24183,273.346319 C292.882353,275.385583 289.738562,275.895399 287.869281,273.856135 C283.79085,269.692638 284.895425,264.934356 286.849673,258.986503 Z" id="XMLID_428_"></path>
                    <path d="M306.562092,258.816564 C307.921569,264.849387 309.366013,269.607669 305.457516,273.856135 C304.098039,275.300613 301.803922,275.470552 300.27451,274.111043 C295.686275,270.032515 298.150327,265.019325 298.320261,259.41135 C303.078431,262.980061 298.915033,268.333129 302.568627,271.731902 C306.562092,268.673006 302.653595,263.404908 306.562092,258.816564 Z" id="XMLID_427_"></path>
                    <path d="M59.2222222,121.081288 L47.4117647,121.081288 L47.4117647,119.55184 L105.019608,119.55184 L105.019608,121.081288 L61.5163399,121.081288 C60.8366013,121.761043 59.9869281,121.761043 59.2222222,121.081288 Z" id="XMLID_426_"></path>
                    <path d="M214.117647,200.017791 C210.20915,199.592945 206.130719,200.782515 200.607843,198.573313 L260,198.573313 L260,200.017791 L243.346405,200.017791 C242.156863,200.782515 240.96732,200.782515 239.777778,200.017791 C232.215686,200.017791 224.738562,199.932822 217.176471,199.932822 C216.156863,200.782515 215.137255,200.697546 214.117647,200.017791 Z" id="XMLID_425_"></path>
                    <path d="M354.228758,239.27362 C356.522876,245.051534 357.117647,249.724847 353.379085,253.973313 C351.934641,255.58773 349.045752,255.58773 347.431373,254.058282 C343.267974,249.894785 345.222222,245.051534 345.647059,239.868405 C347.176471,240.718098 347.771242,240.803067 347.941176,241.142945 C349.72549,244.371779 345.986928,251.084356 350.660131,251.084356 C354.568627,250.999387 350.745098,243.861963 354.228758,239.27362 Z" id="XMLID_424_"></path>
                    <path d="M310.130719,169.003988 C315.738562,167.049693 321.346405,166.030061 327.039216,167.47454 C328.653595,167.899387 331.372549,166.964724 330.947712,169.853681 C330.69281,171.977914 328.48366,172.402761 326.529412,172.48773 C320.921569,172.742638 315.568627,171.043252 310.130719,169.003988 Z" id="XMLID_423_"></path>
                    <path d="M59.0522876,49.4521472 C59.2222222,46.2233129 59.1372549,42.059816 63.9803922,42.1447853 C68.3986928,42.2297546 69.248366,45.8834356 69.248366,49.6220859 C69.248366,53.3607362 68.3986928,56.8444785 63.7254902,56.6745399 C59.3921569,56.5046012 59.2222222,52.9358896 59.0522876,49.4521472 Z" id="XMLID_422_"></path>
                    <path d="M47.2418301,179.880061 C51.3202614,182.769018 49.875817,186.847546 52.3398693,189.056748 C53.869281,186.507669 52.7647059,182.769018 56.4183007,180.219939 C57.8627451,185.14816 55.8235294,189.226687 54.4640523,193.135276 C53.4444444,196.109202 50.7254902,196.36411 49.5359477,192.965337 C48.1764706,189.141718 46.7320261,185.14816 47.2418301,179.880061 Z" id="XMLID_421_"></path>
                    <path d="M299.339869,164.670552 C296.535948,158.212883 289.568627,163.226074 284.045752,158.807669 L308.771242,158.807669 C307.071895,162.716258 302.228758,159.572393 300.869281,162.886196 C300.444444,163.565951 300.444444,164.500613 299.339869,164.670552 Z" id="XMLID_420_"></path>
                    <path d="M320.326797,212.423313 C329.163399,212.84816 327.888889,208.174847 326.104575,203.501534 C325.764706,202.566871 323.300654,202.311963 324.915033,200.782515 C325.679739,200.102761 328.058824,199.932822 328.568627,200.442638 C332.052288,204.351227 331.117647,209.279448 329.418301,213.103067 C327.633987,217.096626 324.065359,216.416871 320.326797,212.423313 Z" id="XMLID_419_"></path>
                    <path d="M98.4771242,164.415644 L98.4771242,141.04908 L100.686275,141.04908 C101.196078,149.970859 103.320261,158.807669 100.006536,167.814417 C98.6470588,167.134663 99.4117647,165.350307 98.4771242,164.415644 Z" id="XMLID_418_"></path>
                    <path d="M370.287582,239.018712 C373.941176,243.861963 370.202614,251.084356 373.856209,250.999387 C379.20915,250.999387 374.111111,243.607055 379.124183,239.103681 C378.529412,245.136503 380.908497,249.894785 376.915033,253.973313 C375.470588,255.502761 372.411765,255.417791 371.052288,253.633436 C367.823529,249.554908 368.843137,244.966564 370.287582,239.018712 Z" id="XMLID_417_"></path>
                    <path d="M343.947712,212.678221 C352.954248,212.678221 351.849673,208.089877 349.980392,203.416564 C349.640523,202.566871 347.261438,202.226994 348.875817,200.782515 C350.150327,199.592945 352.614379,199.677914 353.20915,200.782515 C355.333333,204.946012 355.503268,209.619325 353.20915,213.527914 C351.339869,216.756748 348.026144,216.246933 343.947712,212.678221 Z" id="XMLID_416_"></path>
                    <path d="M128.640523,74.0932515 C138.326797,74.4331288 136.96732,69.759816 135.777778,65.341411 C135.522876,64.2368098 132.039216,64.2368098 134.588235,62.2825153 C135.352941,61.6877301 137.816993,61.7726994 138.24183,62.452454 C140.79085,66.2760736 140.45098,70.7794479 138.751634,74.5180982 C137.052288,78.1717791 133.823529,77.4920245 128.640523,74.0932515 Z" id="XMLID_415_"></path>
                    <path d="M333.496732,180.474847 C336.130719,178.350613 336.130719,178.350613 338.509804,178.350613 L355.673203,178.350613 C353.54902,181.749387 350.575163,179.455215 348.366013,181.494479 C350.320261,186.167791 352.444444,191.096012 355.333333,197.808589 C347.261438,191.860736 349.810458,177.755828 336.72549,180.474847 C335.620915,181.409509 334.51634,181.409509 333.496732,180.474847 Z" id="XMLID_414_"></path>
                    <path d="M275.973856,240.46319 C279.117647,240.038344 282.091503,238.678834 282.686275,242.077607 C283.366013,245.901227 284.215686,250.404601 281.326797,253.633436 C279.117647,256.182515 276.228758,255.077914 272.745098,253.208589 C281.156863,250.489571 281.751634,247.430675 275.973856,240.46319 Z" id="XMLID_413_"></path>
                    <path d="M298.320261,253.548466 C304.267974,249.469939 304.607843,247.855521 300.529412,240.718098 C302.568627,240.038344 305.372549,239.018712 306.052288,241.567791 C306.986928,245.391411 307.666667,249.724847 305.372549,253.208589 C303.673203,255.672699 300.869281,255.332822 298.320261,253.548466 Z" id="XMLID_412_"></path>
                    <path d="M333.326797,232.98589 C340.54902,230.43681 341.058824,228.142638 336.640523,220.920245 C339.019608,220.32546 341.908497,219.390798 342.418301,222.619632 C343.013072,226.358282 343.947712,230.776687 340.718954,233.920552 C338.764706,235.874847 336.130719,236.044785 333.326797,232.98589 Z" id="XMLID_411_"></path>
                    <path d="M308.686275,212.678221 C317.777778,212.593252 316.333333,207.834969 314.124183,203.331595 C313.529412,202.142025 312.084967,201.547239 313.869281,200.612577 C314.633987,200.18773 316.418301,200.272699 316.843137,200.782515 C319.986928,204.521166 319.222222,209.02454 317.69281,212.76319 C316.163399,216.50184 312.849673,216.416871 308.686275,212.678221 Z" id="XMLID_410_"></path>
                    <path d="M288.718954,240.54816 C291.947712,239.698466 295.006536,239.103681 294.751634,243.776994 C294.496732,247.600613 296.875817,252.698773 291.098039,254.568098 C289.48366,255.077914 286.764706,255.332822 286.254902,253.208589 C285.575163,250.234663 288.464052,252.443865 289.398693,251.76411 C294.496732,247.855521 290.418301,244.28681 288.718954,240.54816 Z" id="XMLID_409_"></path>
                    <path d="M141.555556,114.53865 C149.457516,112.414417 150.137255,109.185583 145.464052,102.133129 C147.418301,101.368405 150.137255,100.348773 150.901961,102.727914 C152.091503,106.466564 152.51634,110.8 150.562092,114.283742 C148.862745,117.257669 145.718954,116.662883 141.555556,114.53865 Z" id="XMLID_408_"></path>
                    <path d="M128.895425,113.519018 C138.24183,113.688957 137.392157,109.440491 135.352941,104.937117 C134.843137,103.747546 132.294118,102.982822 134.843137,101.623313 C135.862745,101.113497 138.24183,101.368405 138.581699,101.96319 C140.705882,105.956748 140.705882,110.375153 138.666667,114.113804 C136.712418,117.682515 133.48366,116.832822 128.895425,113.519018 Z" id="XMLID_407_"></path>
                    <path d="M129.150327,133.826687 C137.816993,133.741718 137.222222,129.238344 135.777778,124.65 C135.437908,123.630368 132.20915,123.37546 134.843137,121.676074 C135.69281,121.081288 138.071895,121.336196 138.496732,122.015951 C140.79085,125.669632 140.366013,129.833129 138.921569,133.48681 C137.392157,137.310429 134.163399,136.885583 129.150327,133.826687 Z" id="XMLID_406_"></path>
                    <path d="M133.908497,82.4202454 C136.372549,81.8254601 139.261438,80.8058282 139.601307,84.3745399 C139.941176,88.1981595 141.130719,92.6165644 137.732026,95.6754601 C135.607843,97.5447853 132.888889,97.459816 130.509804,94.5708589 C139.686275,92.6165644 136.797386,87.5184049 133.908497,82.4202454 Z" id="XMLID_405_"></path>
                    <path d="M21.751634,23.1966258 C15.5490196,26.5104294 19.372549,32.4582822 16.8235294,37.1315951 C11.5555556,33.5628834 18.3529412,25.8306748 10.2810458,23.7064417 C14.6143791,21.8371166 17.6732026,22.1769939 21.751634,23.1966258 Z" id="XMLID_404_"></path>
                    <path d="M2.29411765,50.1319018 L2.29411765,44.5239264 C2.29411765,42.5696319 3.31372549,41.295092 5.18300654,41.804908 C8.66666667,42.6546012 5.09803922,43.8441718 5.09803922,44.8638037 C5.18300654,48.347546 5.35294118,51.8312883 4.92810458,55.2300613 C4.75816993,56.7595092 8.75163399,58.2039877 5.18300654,59.308589 C2.54901961,60.0733129 2.37908497,57.6092025 2.29411765,55.7398773 C2.20915033,53.8705521 2.29411765,52.001227 2.29411765,50.1319018 L2.29411765,50.1319018 Z" id="XMLID_403_"></path>
                    <path d="M142.405229,94.3159509 C149.457516,92.2766871 150.137255,89.3027607 145.464052,82.5052147 C147.673203,81.9953988 150.732026,80.4659509 151.156863,83.9496933 C151.581699,87.6883436 152.941176,92.1067485 149.882353,95.3355828 C147.928105,97.459816 145.20915,97.5447853 142.405229,94.3159509 Z" id="XMLID_402_"></path>
                    <path d="M344.797386,232.815951 C352.27451,230.691718 352.954248,227.972699 348.366013,221.345092 C350.320261,220.240491 352.954248,219.475767 353.718954,221.684969 C354.908497,225.42362 355.503268,229.757055 353.20915,233.240798 C351.254902,236.129755 348.366013,235.874847 344.797386,232.815951 Z" id="XMLID_401_"></path>
                    <path d="M368.503268,232.98589 C376.235294,230.776687 376.830065,228.397546 372.496732,221.005215 C374.79085,220.410429 377.764706,219.220859 378.104575,222.704601 C378.529412,226.443252 379.718954,230.776687 376.490196,234.005521 C374.281046,236.214724 371.816993,235.45 368.503268,232.98589 Z" id="XMLID_400_"></path>
                    <path d="M63.9803922,14.7846626 C61.8562092,14.104908 58.372549,15.9742331 58.7973856,11.8957055 C59.1372549,8.83680982 61.4313725,7.73220859 64.5751634,7.90214724 C67.2091503,8.07208589 69.4183007,8.49693252 69.248366,11.7257669 C68.9084967,15.4644172 65.8496732,14.1898773 63.9803922,14.7846626 Z" id="XMLID_399_"></path>
                    <path d="M300.359477,221.090184 C302.738562,220.240491 305.542484,219.475767 306.052288,222.109816 C306.732026,225.848466 307.751634,230.266871 305.117647,233.665644 C303.333333,235.959816 300.614379,236.129755 297.895425,233.155828 C305.712418,230.606748 304.183007,226.018405 300.359477,221.090184 Z" id="XMLID_398_"></path>
                    <path d="M117.594771,115.048466 C125.411765,112.244479 126.091503,108.845706 121.163399,102.473006 C123.03268,101.283436 125.751634,100.68865 126.601307,102.303067 C128.385621,105.956748 128.130719,110.290184 126.771242,113.943865 C125.581699,117.427607 122.267974,116.407975 117.594771,115.048466 Z" id="XMLID_397_"></path>
                    <path d="M357.627451,233.665644 C363.660131,231.541411 364,227.802761 361.535948,223.214417 C361.026144,222.194785 358.986928,221.430061 361.366013,220.580368 C362.470588,220.155521 364.764706,220.410429 365.104575,221.005215 C366.888889,224.743865 366.718954,228.907362 365.359477,232.646012 C364,236.214724 360.856209,235.365031 357.627451,233.665644 Z" id="XMLID_396_"></path>
                    <path d="M275.973856,140.96411 C280.562092,145.382515 274.189542,154.134356 284.640523,154.049387 C274.359477,157.193252 273.509804,155.663804 275.973856,140.96411 Z" id="XMLID_395_"></path>
                    <path d="M384.30719,236.639571 C385.581699,231.116564 385.581699,225.763497 383.372549,219.985583 C391.359477,225.253681 391.614379,229.16227 384.30719,236.639571 Z" id="XMLID_394_"></path>
                    <path d="M383.287582,258.391718 C385.156863,251.339264 386.091503,245.901227 383.117647,239.698466 C391.529412,245.47638 391.614379,249.384969 383.287582,258.391718 Z" id="XMLID_393_"></path>
                    <path d="M135.862745,215.397239 C132.973856,215.057362 131.784314,211.828528 132.464052,210.808896 C134.418301,207.75 137.392157,205.28589 137.986928,201.377301 C137.986928,201.292331 139.091503,201.122393 139.431373,201.377301 C141.385621,202.906748 140.366013,204.861043 139.686275,206.390491 C138.326797,209.364417 140.026144,213.612883 135.862745,215.397239 Z" id="XMLID_392_"></path>
                    <path d="M54.5490196,41.1251534 C52.7647059,47.8377301 52.5947712,53.4457055 54.7189542,60.1582822 C48.1764706,52.8509202 48.1764706,48.4325153 54.5490196,41.1251534 Z" id="XMLID_391_"></path>
                    <path d="M240.202614,99.9239264 C242.071895,93.041411 243.176471,87.4334356 239.183007,80.2960123 C246.745098,86.9236196 246.915033,92.1917178 240.202614,99.9239264 Z" id="XMLID_390_"></path>
                    <path d="M315.058824,235.110123 C310.810458,230.946626 315.908497,224.06411 309.620915,221.430061 C312.764706,219.730675 315.653595,220.750307 320.156863,220.495399 C313.784314,224.573926 317.013072,230.266871 315.058824,235.110123 Z" id="XMLID_389_"></path>
                    <path d="M239.777778,200.017791 L243.346405,200.017791 C244.875817,205.880675 247.084967,211.743558 241.052288,218.456135 C241.647059,211.318712 243.176471,205.370859 239.777778,200.017791 Z" id="XMLID_388_"></path>
                    <path d="M121.418301,61.8576687 C127.45098,68.2303681 127.45098,72.648773 120.823529,79.956135 C123.117647,72.9886503 123.372549,67.3806748 121.418301,61.8576687 Z" id="XMLID_387_"></path>
                    <path d="M127.79085,216.416871 C122.607843,212.423313 121.503268,206.47546 119.464052,200.952454 C124.562092,204.946012 125.751634,210.893865 127.79085,216.416871 Z" id="XMLID_386_"></path>
                    <path d="M277.163399,221.175153 C285.915033,220.495399 282.346405,227.038037 282.261438,230.606748 C282.091503,235.789877 278.437908,235.789877 273.764706,233.750613 C275.379085,230.946626 279.96732,233.070859 280.052288,228.907362 C280.052288,225.848466 279.372549,223.384356 277.163399,221.175153 Z" id="XMLID_385_"></path>
                    <path d="M144.869281,179.285276 C146.653595,171.977914 147.503268,166.624847 144.529412,160.507055 C151.411765,165.860123 151.581699,170.873313 144.869281,179.285276 Z" id="XMLID_384_"></path>
                    <path d="M29.5686275,161.526687 C28.2941176,166.964724 28.8039216,172.402761 29.9934641,177.755828 C24.5555556,172.48773 24.5555556,167.049693 29.5686275,161.526687 Z" id="XMLID_383_"></path>
                    <path d="M61.1764706,179.455215 C63.130719,172.232822 63.7254902,167.049693 61.5163399,161.18681 C67.8039216,166.2 67.8888889,171.21319 61.1764706,179.455215 Z" id="XMLID_382_"></path>
                    <path d="M366.20915,216.50184 C361.45098,212.423313 359.836601,206.815337 358.562092,200.952454 C362.470588,205.455828 364.934641,210.638957 366.20915,216.50184 Z" id="XMLID_381_"></path>
                    <path d="M146.143791,217.096626 C147.333333,211.48865 146.993464,205.880675 145.803922,200.272699 C151.326797,205.710736 150.732026,211.318712 146.143791,217.096626 Z" id="XMLID_380_"></path>
                    <path d="M145.633987,197.383742 C146.993464,191.860736 147.333333,186.422699 144.954248,180.644785 C151.411765,185.403067 151.581699,190.331288 145.633987,197.383742 Z" id="XMLID_379_"></path>
                    <path d="M300.189542,200.697546 C302.568627,205.795706 305.03268,210.893865 307.411765,215.992025 C301.718954,212.168405 300.189542,206.390491 297.895425,201.037423 C298.660131,200.952454 299.424837,200.867485 300.189542,200.697546 Z" id="XMLID_378_"></path>
                    <path d="M62.875817,157.36319 C63.3006536,151.925153 63.7254902,146.487117 62.1111111,141.04908 C67.8888889,146.232209 67.124183,151.755215 62.875817,157.36319 Z" id="XMLID_377_"></path>
                    <path d="M121.928105,98.3944785 C123.542484,92.7865031 122.862745,87.1785276 121.928105,81.5705521 C127.366013,87.0935583 126.941176,92.7865031 121.928105,98.3944785 Z" id="XMLID_376_"></path>
                    <path d="M240.96732,2.63404908 C246.660131,7.64723926 246.235294,13.340184 241.647059,19.2030675 C241.901961,13.6800613 243.091503,8.07208589 240.96732,2.63404908 Z" id="XMLID_375_"></path>
                    <path d="M127.620915,137.565337 C123.117647,133.40184 121.333333,127.878834 120.058824,122.015951 C123.797386,126.519325 126.51634,131.617485 127.620915,137.565337 Z" id="XMLID_374_"></path>
                    <path d="M59.2222222,121.081288 L61.6013072,121.081288 C63.9803922,126.519325 66.3594771,131.872393 68.7385621,137.310429 C63.6405229,132.807055 60.9215686,127.11411 59.2222222,121.081288 Z" id="XMLID_373_"></path>
                    <path d="M334.51634,240.46319 C339.189542,244.541718 340.379085,250.319632 342.333333,255.757669 C337.660131,251.679141 335.875817,246.241104 334.51634,240.46319 Z" id="XMLID_372_"></path>
                    <path d="M30.0784314,157.618098 C24.3006536,152.010123 24.8954248,146.402147 29.7385621,140.96411 C29.0588235,146.487117 27.9542484,152.010123 30.0784314,157.618098 Z" id="XMLID_371_"></path>
                    <path d="M192.79085,42.1447853 C195.254902,47.4128834 197.718954,52.5960123 200.183007,57.8641104 C194.490196,54.2104294 193.045752,48.347546 190.751634,42.9944785 C191.346405,42.6546012 192.026144,42.3996933 192.79085,42.1447853 Z" id="XMLID_370_"></path>
                    <path d="M74.5163399,58.7138037 C75.1960784,53.2757669 75.5359477,47.7527607 74.5163399,42.3147239 C79.3594771,47.8377301 79.3594771,53.2757669 74.5163399,58.7138037 Z" id="XMLID_369_"></path>
                    <path d="M36.1111111,82.590184 C41.2091503,86.3288344 41.9738562,92.2766871 44.1830065,97.5447853 C39.3398693,93.6361963 38.3202614,87.8582822 36.1111111,82.590184 Z" id="XMLID_368_"></path>
                    <path d="M35.3464052,161.951534 C40.7843137,165.520245 42.3986928,171.043252 44.6078431,176.22638 C43.9281046,176.566258 43.248366,176.906135 42.5686275,177.330982 C40.1895425,172.147853 37.8104575,167.049693 35.3464052,161.951534 Z" id="XMLID_367_"></path>
                    <path d="M138.411765,196.788957 C135.098039,192.030675 132.803922,186.762577 132.973856,180.474847 C135.437908,185.657975 137.901961,190.841104 140.366013,196.024233 C139.686275,196.194172 139.006536,196.534049 138.411765,196.788957 Z" id="XMLID_366_"></path>
                    <path d="M372.496732,200.697546 C377.509804,206.135583 378.104575,211.658589 371.901961,218.541104 C373.176471,211.57362 374.620915,206.135583 372.496732,200.697546 Z" id="XMLID_365_"></path>
                    <path d="M333.496732,180.474847 L336.72549,180.474847 C338.679739,185.573006 340.633987,190.671166 342.588235,195.769325 C338,191.520859 335.281046,186.252761 333.496732,180.474847 Z" id="XMLID_364_"></path>
                    <path d="M227.457516,82.590184 C231.535948,86.8386503 233.830065,91.9368098 234.764706,97.7147239 C230.686275,93.4662577 228.477124,88.2831288 227.457516,82.590184 Z" id="XMLID_363_"></path>
                    <path d="M37.7254902,101.538344 C40.1045752,106.551534 42.3986928,111.649693 44.7777778,116.662883 C44.0980392,117.002761 43.3333333,117.427607 42.6535948,117.767485 C40.1895425,112.669325 37.8104575,107.571166 35.3464052,102.557975 C36.1111111,102.218098 36.9607843,101.878221 37.7254902,101.538344 Z" id="XMLID_362_"></path>
                    <path d="M253.202614,22.9417178 C258.640523,28.1248466 258.385621,33.6478528 252.862745,40.7003067 C253.712418,33.7328221 255.581699,28.3797546 253.202614,22.9417178 Z" id="XMLID_361_"></path>
                    <path d="M251.163399,101.878221 C255.411765,106.126687 256.771242,111.819632 258.72549,117.172699 C254.052288,113.179141 252.267974,107.741104 251.163399,101.878221 Z" id="XMLID_360_"></path>
                    <path d="M287.359477,221.345092 C290.588235,225.933436 294.071895,230.35184 294.836601,237.91411 C290.418301,231.966258 288.124183,226.953067 287.359477,221.345092 Z" id="XMLID_359_"></path>
                    <path d="M165.941176,22.5168712 C167.215686,20.7325153 168.235294,21.157362 169.254902,22.7717791 C171.464052,27.7849693 173.673203,32.7981595 175.797386,37.8113497 C175.202614,38.0662577 174.69281,38.406135 174.098039,38.6610429 C171.464052,33.3079755 168.660131,27.8699387 165.941176,22.5168712 Z" id="XMLID_358_"></path>
                    <path d="M107.738562,140.454294 C112.24183,146.232209 114.196078,151.245399 115.215686,156.768405 C111.986928,152.35 108.673203,148.016564 107.738562,140.454294 Z" id="XMLID_357_"></path>
                    <path d="M47.3267974,142.578528 C52.8496732,145.977301 54.124183,151.585276 56.7581699,156.513497 C56.0784314,156.853374 55.3986928,157.193252 54.7189542,157.533129 C52.254902,152.519939 49.7908497,147.506748 47.3267974,142.578528 Z" id="XMLID_356_"></path>
                    <path d="M269.091503,137.22546 C266.797386,132.382209 264.503268,127.453988 262.20915,122.610736 C262.888889,122.270859 263.568627,122.015951 264.248366,121.676074 C267.052288,126.519325 269.856209,131.362577 269.091503,137.22546 Z" id="XMLID_355_"></path>
                    <path d="M214.117647,200.017791 C215.137255,200.017791 216.24183,199.932822 217.261438,199.932822 C219.300654,205.28589 221.424837,210.638957 223.464052,215.992025 C222.869281,216.331902 222.359477,216.58681 221.764706,216.926687 C219.215686,211.233742 216.666667,205.625767 214.117647,200.017791 Z" id="XMLID_354_"></path>
                    <path d="M127.45098,57.7791411 C122.862745,53.7006135 121.333333,48.092638 119.54902,42.6546012 C124.30719,46.6481595 125.581699,52.4260736 127.45098,57.7791411 Z" id="XMLID_353_"></path>
                    <path d="M263.228758,200.952454 C267.30719,205.20092 268.921569,210.638957 270.535948,215.992025 C266.287582,211.828528 264.163399,206.645399 263.228758,200.952454 Z" id="XMLID_352_"></path>
                    <path d="M319.052288,195.514417 C313.614379,192.200613 312.339869,186.677607 311.660131,180.729755 C314.124183,185.657975 316.588235,190.586196 319.052288,195.514417 Z" id="XMLID_351_"></path>
                    <path d="M126.176471,196.788957 C123.797386,191.945706 121.333333,187.102454 118.699346,181.664417 C123.202614,183.87362 123.882353,185.06319 126.176471,196.788957 Z" id="XMLID_350_"></path>
                    <path d="M127.45098,157.193252 C123.287582,152.859816 121.588235,149.376074 120.058824,142.153681 C124.222222,146.317178 125.666667,149.291104 127.45098,157.193252 Z" id="XMLID_349_"></path>
                    <path d="M280.816993,260.006135 C279.03268,265.529141 279.202614,270.882209 281.496732,276.745092 C275.039216,271.90184 274.869281,266.293865 280.816993,260.006135 Z" id="XMLID_348_"></path>
                    <path d="M107.228758,116.407975 C109.607843,111.479755 111.986928,106.636503 114.281046,101.708282 C114.960784,102.04816 115.640523,102.303067 116.320261,102.642945 C114.196078,107.741104 112.24183,113.009202 108.843137,117.597546 C108.333333,117.172699 107.738562,116.832822 107.228758,116.407975 Z" id="XMLID_347_"></path>
                    <path d="M132.039216,161.526687 C135.862745,165.945092 138.326797,171.043252 139.261438,176.821166 C134.928105,172.657669 133.228758,167.134663 132.039216,161.526687 Z" id="XMLID_346_"></path>
                    <path d="M44.8627451,122.695706 C42.3137255,127.793865 39.8496732,132.892025 37.3006536,137.990184 C37.4705882,131.617485 40.0196078,126.434356 44.8627451,122.695706 Z" id="XMLID_345_"></path>
                    <path d="M270.281046,221.175153 C269.261438,226.953067 266.96732,231.966258 263.228758,236.299693 C264.078431,230.521779 266.627451,225.508589 270.281046,221.175153 Z" id="XMLID_344_"></path>
                    <path d="M31.6928105,57.6941718 C27.7843137,53.2757669 25.6601307,48.092638 24.3856209,42.5696319 C28.7189542,46.7331288 30.3333333,52.1711656 31.6928105,57.6941718 Z" id="XMLID_343_"></path>
                    <path d="M282.51634,216.50184 C278.183007,212.168405 276.313725,206.645399 274.784314,200.952454 C279.117647,205.28589 281.24183,210.638957 282.51634,216.50184 Z" id="XMLID_342_"></path>
                    <path d="M285.915033,201.632209 C291.267974,205.20092 292.542484,210.723926 295.261438,215.567178 C294.581699,215.907055 293.816993,216.246933 293.137255,216.58681 C290.75817,211.658589 288.379085,206.645399 285.915033,201.632209 Z" id="XMLID_341_"></path>
                    <path d="M115.385621,176.736196 C111.137255,172.657669 109.437908,167.219632 107.993464,161.781595 C112.24183,165.775153 114.196078,171.043252 115.385621,176.736196 Z" id="XMLID_340_"></path>
                    <path d="M30.8431373,98.2245399 C28.4640523,93.2113497 26.0849673,88.1981595 23.7058824,83.1849693 C24.3006536,82.845092 24.9803922,82.590184 25.5751634,82.2503067 C28.7189542,86.8386503 30.5882353,92.0217791 32.5424837,97.1199387 C31.9477124,97.459816 31.3529412,97.8846626 30.8431373,98.2245399 Z" id="XMLID_339_"></path>
                    <path d="M322.875817,181.239571 C326.614379,185.403067 328.908497,190.331288 329.673203,195.939264 C326.104575,191.690798 323.72549,186.847546 322.875817,181.239571 Z" id="XMLID_338_"></path>
                    <path d="M214.882353,62.3674847 C219.810458,66.5309816 221.254902,72.393865 223.20915,78.0018405 C218.281046,73.8383436 216.921569,67.8904908 214.882353,62.3674847 Z" id="XMLID_337_"></path>
                    <path d="M104.594771,63.1322086 C102.130719,68.2303681 99.751634,73.3285276 97.2875817,78.4266871 C96.6078431,78.0868098 95.8431373,77.7469325 95.1633987,77.4070552 C97.7124183,72.3088957 99.4117647,66.7858896 104.594771,63.1322086 Z" id="XMLID_336_"></path>
                    <path d="M253.287582,40.9552147 C256.856209,45.5435583 258.215686,49.2822086 256.771242,53.7006135 C256.346405,54.890184 256.176471,56.5895706 254.392157,56.2496933 C252.607843,55.909816 252.607843,54.4653374 253.372549,53.2757669 C255.581699,49.6220859 252.437908,46.1383436 253.287582,40.9552147 Z" id="XMLID_335_"></path>
                    <path d="M21.0718954,77.5769939 C15.6339869,73.8383436 14.1895425,68.0604294 13.5098039,62.0276074 C15.9738562,67.2107362 18.5228758,72.393865 21.0718954,77.5769939 Z" id="XMLID_334_"></path>
                    <path d="M342.333333,216.331902 C338,212.083436 335.960784,206.560429 334.346405,200.867485 C339.019608,204.946012 340.54902,210.638957 342.333333,216.331902 Z" id="XMLID_333_"></path>
                    <path d="M314.20915,259.496319 C316.673203,264.339571 318.542484,269.267791 313.784314,273.856135 C315.653595,268.927914 311.490196,264.084663 313.529412,259.156442 L314.20915,259.496319 Z" id="XMLID_332_"></path>
                    <path d="M328.993464,236.554601 C326.614379,231.541411 324.235294,226.443252 321.856209,221.430061 C327.20915,225.168712 328.908497,230.606748 330.862745,235.874847 C330.267974,236.044785 329.588235,236.299693 328.993464,236.554601 Z" id="XMLID_331_"></path>
                    <path d="M8.15686275,23.1116564 C6.54248366,28.6346626 4.92810458,34.1576687 0.339869281,38.151227 C2.20915033,32.7981595 3.73856209,27.190184 8.15686275,23.1116564 Z" id="XMLID_330_"></path>
                    <path d="M83.5228758,99.6690184 C84.8823529,92.0217791 88.0261438,87.2634969 91.3398693,82.590184 C90.0653595,88.1131902 88.4509804,93.551227 83.5228758,99.6690184 Z" id="XMLID_329_"></path>
                    <path d="M357.457516,181.749387 C362.72549,185.233129 364.254902,190.671166 364.934641,196.534049 C362.385621,191.605828 359.921569,186.677607 357.457516,181.749387 Z" id="XMLID_328_"></path>
                    <path d="M297.895425,181.749387 C303.078431,185.233129 304.607843,190.671166 305.202614,196.534049 C302.738562,191.605828 300.27451,186.677607 297.895425,181.749387 Z" id="XMLID_327_"></path>
                    <path d="M109.098039,180.729755 C111.477124,185.742945 113.856209,190.841104 116.235294,195.854294 C111.052288,192.115644 109.522876,186.677607 106.973856,181.664417 C107.738562,181.409509 108.418301,181.069632 109.098039,180.729755 Z" id="XMLID_326_"></path>
                    <path d="M42.6535948,196.788957 C40.2745098,191.775767 37.8104575,186.762577 35.4313725,181.664417 C40.6143791,185.14816 42.2287582,190.671166 44.6078431,195.684356 C43.9281046,196.109202 43.248366,196.44908 42.6535948,196.788957 Z" id="XMLID_325_"></path>
                    <path d="M80.7189542,156.513497 C75.3660131,153.284663 74.0915033,147.591718 71.4575163,142.578528 C72.0522876,142.23865 72.6470588,141.983742 73.2418301,141.643865 C75.7058824,146.657055 78.1699346,151.585276 80.7189542,156.513497 Z" id="XMLID_324_"></path>
                    <path d="M140.535948,159.232515 C135.183007,153.029755 133.48366,147.761656 132.124183,142.23865 C135.947712,146.487117 138.326797,151.500307 140.535948,159.232515 Z" id="XMLID_323_"></path>
                    <path d="M121.333333,161.526687 C123.627451,166.454908 125.836601,171.383129 128.130719,176.22638 C123.287582,172.317791 120.823529,167.304601 121.333333,161.526687 Z" id="XMLID_322_"></path>
                    <path d="M253.372549,63.3021472 C258.640523,69.9297546 258.640523,71.3742331 253.627451,79.0214724 C252.098039,76.1325153 254.477124,73.9233129 254.137255,71.6291411 C253.882353,69.3349693 253.712418,67.1257669 253.372549,63.3021472 Z" id="XMLID_321_"></path>
                    <path d="M56.7581699,176.22638 C51.5751634,172.827607 50.130719,167.47454 47.6666667,162.631288 C48.3464052,162.291411 48.9411765,161.866564 49.620915,161.526687 C52,166.369939 54.379085,171.29816 56.7581699,176.22638 Z" id="XMLID_320_"></path>
                    <path d="M266.96732,253.718405 C262.973856,248.790184 264.673203,244.371779 268.24183,240.293252 C267.477124,244.711656 267.137255,249.130061 266.96732,253.718405 Z" id="XMLID_319_"></path>
                    <path d="M226.098039,218.711043 C229.496732,217.266564 232.895425,217.096626 237.398693,218.456135 C233.065359,221.005215 229.581699,220.240491 226.098039,218.711043 Z" id="XMLID_318_"></path>
                    <path d="M237.993464,48.4325153 C232.555556,50.3868098 229.326797,50.5567485 224.738562,48.347546 C229.411765,46.2233129 232.640523,46.3082822 237.993464,48.4325153 Z" id="XMLID_317_"></path>
                    <path d="M178.006536,187.017485 C172.993464,188.971779 169.764706,189.056748 164.666667,186.847546 C169.764706,184.893252 172.993464,184.723313 178.006536,187.017485 Z" id="XMLID_316_"></path>
                    <path d="M299.339869,164.670552 C299.849673,164.075767 300.359477,163.480982 300.869281,162.886196 C302.908497,167.304601 305.03268,171.723006 307.071895,176.141411 C302.228758,173.592331 301.124183,168.919018 299.339869,164.670552 Z" id="XMLID_315_"></path>
                    <path d="M249.20915,48.2625767 C244.705882,50.4717791 241.816993,50.3868098 237.738562,48.602454 C241.647059,45.9684049 244.535948,46.4782209 249.20915,48.2625767 Z" id="XMLID_314_"></path>
                    <path d="M237.058824,52.0861963 C232.555556,55.0601227 229.581699,54.0404908 226.607843,52.0861963 L237.058824,52.0861963 Z" id="XMLID_313_"></path>
                    <path d="M238.843137,72.7337423 C241.732026,70.3546012 244.620915,70.3546012 248.189542,71.9690184 C244.875817,75.2828221 241.816993,73.7533742 238.843137,72.7337423 Z" id="XMLID_312_"></path>
                    <path d="M313.529412,259.156442 C314.039216,252.953681 312.679739,246.580982 314.888889,240.46319 C315.143791,246.83589 317.352941,253.208589 314.20915,259.496319 C314.124183,259.241411 313.869281,259.071472 313.529412,259.156442 Z" id="XMLID_311_"></path>
                    <path d="M83.6078431,152.180061 C86.496732,149.80092 89.3856209,150.480675 93.379085,150.990491 C89.5555556,154.389264 86.4117647,152.180061 83.6078431,152.180061 Z" id="XMLID_310_"></path>
                    <path d="M190.326797,186.762577 C185.058824,188.971779 182,189.056748 177.836601,187.102454 C181.915033,184.468405 184.973856,185.06319 190.326797,186.762577 Z" id="XMLID_309_"></path>
                    <path d="M201.117647,186.847546 C196.614379,189.056748 193.72549,189.056748 189.732026,187.187423 C193.470588,184.468405 196.444444,184.978221 201.117647,186.847546 Z" id="XMLID_308_"></path>
                    <path d="M142.915033,129.833129 C146.993464,128.218712 146.993464,128.218712 152.601307,129.66319 C149.202614,134.081595 145.973856,128.898466 142.915033,129.833129 Z" id="XMLID_307_"></path>
                    <path d="M166.79085,129.918098 C170.614379,128.218712 170.614379,128.218712 176.392157,129.493252 C173.248366,133.911656 169.764706,129.238344 166.79085,129.918098 Z" id="XMLID_306_"></path>
                    <path d="M200.098039,129.323313 C197.039216,133.996626 193.895425,129.068405 190.751634,130.173006 C193.810458,125.499693 196.954248,130.257975 200.098039,129.323313 Z" id="XMLID_305_"></path>
                    <path d="M177.666667,149.546012 C172.738562,150.820552 171.718954,150.820552 166.705882,149.970859 C170.189542,147.931595 170.189542,147.931595 177.666667,149.546012 Z" id="XMLID_304_"></path>
                    <path d="M155.065359,129.918098 C158.294118,126.349387 161.013072,129.153374 164.836601,129.408282 C160.928105,133.571779 157.954248,129.238344 155.065359,129.918098 Z" id="XMLID_303_"></path>
                    <path d="M187.862745,109.865337 C184.973856,112.754294 182.169935,110.290184 179.281046,110.290184 C181.830065,106.126687 185.058824,110.290184 187.862745,109.865337 Z" id="XMLID_302_"></path>
                    <path d="M175.712418,110.120245 C172.738562,112.414417 169.764706,110.8 166.196078,110.715031 C169.424837,105.616871 172.653595,110.035276 175.712418,110.120245 Z" id="XMLID_301_"></path>
                    <path d="M166.705882,90.152454 C170.104575,87.2634969 172.993464,90.0674847 177.666667,89.2177914 C172.823529,93.7211656 169.764706,89.642638 166.705882,90.152454 Z" id="XMLID_300_"></path>
                    <path d="M152.941176,90.7472393 C158.039216,87.0935583 161.013072,89.642638 165.856209,89.1328221 C160.928105,93.551227 157.954248,90.5773006 152.941176,90.7472393 Z" id="XMLID_299_"></path>
                    <path d="M163.732026,149.715951 C160.503268,152.434969 157.869281,149.80092 153.196078,149.970859 C158.039216,146.742025 160.928105,148.696319 163.732026,149.715951 Z" id="XMLID_298_"></path>
                    <path d="M178.091503,149.461043 C182.339869,146.996933 185.058824,148.52638 188.627451,149.036196 C184.973856,153.284663 182.254902,149.970859 178.091503,149.461043 Z" id="XMLID_295_"></path>
                    <path d="M98.4771242,164.415644 C98.9869281,165.520245 99.496732,166.624847 100.091503,167.814417 C100.51634,170.703374 101.026144,173.507362 101.45098,176.396319 C97.2026144,173.167485 97.372549,168.919018 98.4771242,164.415644 Z" id="XMLID_294_"></path>
                    <path d="M63.9803922,54.1254601 C61.0915033,51.491411 60.8366013,48.6874233 63.0457516,45.7134969 C63.3006536,45.3736196 65,45.3736196 65.0849673,45.7134969 C66.6143791,48.6874233 67.124183,51.6613497 63.9803922,54.1254601 Z" id="XMLID_293_"></path>
                </g>
            </g>
            <text id="chevron_left---material" transform="translate(94.500000, 517.000000) scale(-1, 1) translate(-94.500000, -517.000000) " font-family="material" font-size="72" font-weight="normal" fill="#FFFFFF">
                <tspan x="57" y="542"></tspan>
            </text>
            <path d="M176.5,576.5 L213.5,576.5" id="Line" stroke="#FFFFFF" stroke-width="5" stroke-linecap="square"></path>
            <text id="j" font-family="Monaco" font-size="72" font-weight="normal" fill="#FFFFFF">
                <tspan x="132" y="535">j</tspan>
            </text>
            <text id="ayChung" font-family="Monaco" font-size="72" font-weight="normal" fill="#525252">
                <tspan x="176" y="535">ayChung</tspan>
            </text>
        </g>
    </g>
</svg>